<?xml version="1.0" encoding="utf-8"?>
<!-- Svg Vector Icons : http://www.onlinewebfonts.com/icon -->
<!DOCTYPE svg PUBLIC "-//W3C//DTD SVG 1.1//EN" "http://www.w3.org/Graphics/SVG/1.1/DTD/svg11.dtd">
<svg version="1.1" xmlns="http://www.w3.org/2000/svg" xmlns:xlink="http://www.w3.org/1999/xlink" x="0px" y="0px" viewBox="0 0 1000 1000" enable-background="new 0 0 1000 1000" xml:space="preserve">
<metadata> Svg Vector Icons : http://www.onlinewebfonts.com/icon </metadata>
<g><g transform="translate(0.000000,512.000000) scale(0.100000,-0.100000)"><path d="M4292.2,5061.6c-176-37.1-303.1-76.3-451.7-140.8l-89.9-37.1l-393-1030.4c-215.1-567-1036.3-2719.8-1824.3-4784.6C745.3-2996.1,102-4703.1,100.1-4722.6c-2-31.3,31.3-48.9,181.8-95.8c99.7-29.3,189.7-48.9,197.5-39.1c5.9,7.8,484.9,1255.3,1061.7,2772.6C2117.9-567.6,2604.8,709.1,2622.4,752.2l31.3,80.2l174,25.4c340.2,48.9,676.5-11.7,1024.6-183.8c406.7-203.3,715.6-479,1405.8-1253.3c422.3-473.2,813.4-842.7,1085.2-1026.5c162.3-107.5,445.8-240.5,617.9-285.5c203.4-54.7,684.3-50.8,893.6,7.8c177.9,48.9,406.7,136.9,438,168.2c23.5,23.5,1619,4196,1607.2,4205.8c-3.9,2-82.1-23.5-174-60.6c-428.2-166.2-858.4-187.7-1249.4-62.6c-479,152.5-891.6,484.9-1654.2,1335.4c-715.6,799.7-1057.8,1085.2-1521.2,1278.8C5007.8,5102.7,4622.6,5133.9,4292.2,5061.6z M5281.6,4825c76.3-31.3,207.3-99.7,293.3-152.5c146.6-91.9,389.1-275.7,389.1-297.2c0-5.9-82.1-226.8-183.8-492.7l-183.8-483l-60.6,48.9c-232.7,187.7-569,381.3-770.4,441.9c-70.4,21.5-84.1,31.3-74.3,64.5c5.9,23.5,88,244.4,181.8,494.7C5070.4,4967.7,5025.4,4928.6,5281.6,4825z M4546.4,3947.1c58.7-11.7,107.5-23.5,113.4-27.4c5.9-7.8-123.2-355.9-348-942.5c-15.6-39.1-21.5-39.1-140.8-15.6c-248.3,52.8-635.5,21.5-903.3-70.4c-64.5-21.5-117.3-37.1-119.3-35.2c-7.8,9.8,359.8,960,375.4,975.7c23.5,19.6,197.5,74.3,340.2,105.6C4012.6,3968.6,4401.7,3974.5,4546.4,3947.1z M7336.6,2953.8c228.8-226.8,242.4-244.4,224.9-293.3c-11.7-29.3-93.8-248.3-185.8-488.8l-166.2-436l123.2-101.7c166.2-136.9,430.2-293.3,623.7-367.6c88-33.2,160.3-62.6,164.2-66.5c3.9-2-74.3-213.1-172.1-469.3c-95.8-254.2-176-475.1-176-488.8c0-35.2,193.6-68.4,412.6-68.4c203.4,0,438,37.1,612,97.8c60.6,19.6,109.5,33.2,109.5,29.3c0-11.7-367.6-971.8-375.4-977.7c-3.9-3.9-84.1-29.3-177.9-56.7c-262-76.3-490.8-97.8-715.6-70.4c-103.6,13.7-203.3,25.4-224.9,27.4c-29.3,1.9-66.5-80.2-219-475.1c-99.7-262-187.7-481-191.6-486.9c-19.6-17.6-297.2,93.8-443.8,177.9c-144.7,82.1-436,291.3-459.5,330.4c-17.6,27.4,344.1,973.7,373.5,973.7c11.7,0,39.1-17.6,60.6-41c46.9-52.8,355.9-260,484.9-324.6c54.7-27.4,158.4-70.4,230.7-95.8c119.3-39.1,131-41.1,142.7-11.7c72.4,179.9,361.7,948.3,357.8,952.2c-3.9,2-72.3,27.4-154.5,56.7c-187.7,66.5-398.9,187.7-602.2,342.2l-160.3,121.2l-25.4-64.5C6791,642.7,6707,421.7,6619,189l-162.3-424.3L6323.7-114c-74.3,64.5-254.2,250.3-400.8,408.7C5776.2,453,5655,584,5651.1,584c-2,0-86-215.1-185.8-479c-101.7-264-187.7-479.1-193.6-479.1c-7.8,0-95.8,93.8-197.5,207.3c-101.7,113.4-279.6,299.2-395,410.6l-209.2,201.4L4657.8,934l187.7,488.8l131-117.3c74.3-64.5,254.2-250.3,400.8-410.6c148.6-160.3,269.8-291.3,273.7-291.3c2,0,86,215.1,185.8,479c99.7,264,187.7,479,195.5,479c5.9,0,93.8-89.9,191.6-201.4c242.5-275.7,590.5-610,610.1-588.5c7.8,9.8,95.8,228.8,193.6,486.9l179.9,467.3l-301.1,305c-164.2,166.2-346.1,353.9-402.8,414.5L6402,2558.8l-25.4-64.5c-15.6-33.2-99.7-254.2-187.7-488.8l-162.3-426.3l-119.3,133c-164.2,185.8-621.8,651.1-658.9,670.7c-27.4,15.6-58.7-50.8-215.1-459.5c-99.7-264-191.6-479-203.3-479c-13.7,0-39.1,17.6-58.7,39.1c-156.4,172.1-832.9,522.1-860.3,443.8c-5.9-13.7-88-230.7-183.8-483c-174-455.6-176-459.5-230.7-455.6c-467.3,41-678.5,27.4-956.1-60.6c-80.2-25.4-144.7-45-144.7-41.1c0,5.9,328.5,870.1,359.8,950.3c13.7,31.3,197.5,95.8,373.5,133c183.8,37.1,389.1,45,557.3,21.5c91.9-13.7,181.8-25.4,201.4-27.4c31.3-2,68.4,82.1,219,473.2c101.7,262,187.7,481,193.6,486.9c19.6,19.6,295.2-91.9,453.6-181.9c86-48.9,222.9-140.8,307-205.3c84.1-66.5,156.4-115.4,160.3-111.4c3.9,3.9,88,217,185.8,475.1c97.8,258.1,181.8,471.2,185.8,477.1c19.6,17.6,246.4-199.4,516.2-490.8c156.4-170.1,289.4-301.1,297.2-293.3c7.8,7.8,90,217,183.8,463.4c93.8,248.3,174,457.5,179.9,467.3c5.9,9.8,82.1-60.6,168.1-156.4C7023.7,3272.5,7203.6,3086.8,7336.6,2953.8z M9649.7,2251.9c-2-9.8-82.1-226.8-181.8-484.9l-179.9-469.3l-117.3-41.1c-146.7-52.8-449.7-105.6-600.3-105.6c-138.8,0-389.1,35.2-414.5,58.7c-9.8,9.8,60.6,222.9,166.2,498.6l183.8,483l58.7-13.7c269.8-56.7,617.9-43,883.8,37.1C9620.3,2265.5,9649.7,2271.4,9649.7,2251.9z"/></g></g>
</svg>